# xmcd
#
# Track frame offsets:
#	150
#	4953
#	22926
#	40404
#	48003
#	64346
#	73861
#	90976
#	105742
#	125964
#	140388
#	166365
#
# Disc length: 2355 seconds
#
# Revision: 0
# Processed by: cddbd v1.5.2PL0 Copyright (c) Steve Scherf et al.
# Submitted via: EasyCDDAExtractor 12.0.0.1
#
DISCID=a309310c
DTITLE=King Wilkie - King Wilkie Presents... The Wilkie Family Singers
DYEAR=2009
DGENRE=Bluegrass
TTITLE0=Moon And Sun
TTITLE1=Goodbye Rose
TTITLE2=Videotape
TTITLE3=Same Water
TTITLE4=Sweet Dream
TTITLE5=Symbaline
TTITLE6=Railroad Town
TTITLE7=Hey Old Man
TTITLE8=Dr. Art
TTITLE9=Orange Creme Houses
TTITLE10=Take It Underground
TTITLE11=Sun And Moon
EXTD=
EXTT0=
EXTT1=
EXTT2=
EXTT3=
EXTT4=
EXTT5=
EXTT6=
EXTT7=
EXTT8=
EXTT9=
EXTT10=
EXTT11=
PLAYORDER=
